<?xml version="1.0" encoding="utf-8"?>
<!-- Generator: Adobe Illustrator 18.1.1, SVG Export Plug-In . SVG Version: 6.00 Build 0)  -->
<!DOCTYPE svg PUBLIC "-//W3C//DTD SVG 1.1//EN" "http://www.w3.org/Graphics/SVG/1.1/DTD/svg11.dtd">
<svg version="1.1" id="Layer_1" xmlns="http://www.w3.org/2000/svg" xmlns:xlink="http://www.w3.org/1999/xlink" x="0px" y="0px"
	 viewBox="-282 570.4 599 413.6" enable-background="new -282 570.4 599 413.6" xml:space="preserve">
<path id="path-1" fill="#FFFFFF" d="M245.4,787.4c-5.2,24.7-19.5,63.8-62.5,106.8C108.6,968.4,1.9,984-35.9,984
	s-161.5-5.2-246.1-121.1c0,0,110.7,99,222.7-5.2c-53.4,6.5-56-40.4-19.5-46.9c-53.4-2.6-62.5-19.5-69-35.2
	c-6.5-15.6,16.9-15.6,36.5-18.2c-36.5-13-66.4-35.2-62.5-58.6c2.6-9.1,33.9-1.3,31.3-7.8c-2.6-6.5-58.6-31.3-46.9-75.5
	c50.8,26,135.4,40.4,197.9,106.8C27.9,667.6,60.5,596,94.3,580.4c35.2-15.6,63.8-11.7,71.6,3.9c7.8,15.6-48.2,27.3-48.2,27.3
	c66.4-6.5,112,53.4,125,109.4c29.9,18.2,69,1.3,69,1.3s-7.8,29.9-58.6,35.2c-6.5,2.6,27.3,9.1,63.8,5.2
	C298.7,784.8,263.6,787.4,245.4,787.4z"/>
</svg>
