<?xml version="1.0" encoding="utf-8"?>
<!-- Generator: Adobe Illustrator 18.1.1, SVG Export Plug-In . SVG Version: 6.00 Build 0)  -->
<!DOCTYPE svg PUBLIC "-//W3C//DTD SVG 1.1//EN" "http://www.w3.org/Graphics/SVG/1.1/DTD/svg11.dtd">
<svg version="1.1" id="Layer_1" xmlns="http://www.w3.org/2000/svg" xmlns:xlink="http://www.w3.org/1999/xlink" x="0px" y="0px"
	 viewBox="-290 386 30 22" enable-background="new -290 386 30 22" xml:space="preserve">
<path id="path-1" fill="#4E4E56" d="M-263.8,386h-18.8c-1.4,0-2.7,0.8-3.4,2l-3.8,7.3c-0.5,1-0.5,2.2,0,3.3l3.8,7.3
	c0.6,1.2,1.9,2,3.4,2h18.8c2.1,0,3.8-1.6,3.8-3.7v-14.7C-260,387.6-261.7,386-263.8,386z M-261.9,404.3c0,1-0.8,1.8-1.9,1.8h-18.8
	c-0.7,0-1.4-0.4-1.7-1l-3.8-7.3c-0.3-0.5-0.3-1.1,0-1.6l3.8-7.3c0.3-0.6,1-1,1.7-1h18.8c1,0,1.9,0.8,1.9,1.8V404.3z M-283.5,396.1
	c0.5,0,0.9,0.4,0.9,0.9c0,0.5-0.4,0.9-0.9,0.9c-0.5,0-0.9-0.4-0.9-0.9C-284.4,396.5-284,396.1-283.5,396.1 M-283.5,395.2
	c-1,0-1.9,0.8-1.9,1.8c0,1,0.8,1.8,1.9,1.8c1,0,1.9-0.8,1.9-1.8C-281.6,396-282.4,395.2-283.5,395.2L-283.5,395.2z"/>
</svg>
