<?xml version="1.0" encoding="utf-8"?>
<!-- Generator: Adobe Illustrator 18.1.1, SVG Export Plug-In . SVG Version: 6.00 Build 0)  -->
<!DOCTYPE svg PUBLIC "-//W3C//DTD SVG 1.1//EN" "http://www.w3.org/Graphics/SVG/1.1/DTD/svg11.dtd">
<svg version="1.1" id="Layer_1" xmlns="http://www.w3.org/2000/svg" xmlns:xlink="http://www.w3.org/1999/xlink" x="0px" y="0px"
	 viewBox="-285 467 612 612" enable-background="new -285 467 612 612" xml:space="preserve">
<path id="path-1" fill="#FFFFFF" d="M-203.9,1079c-44.4,0-81.1-36.7-81.1-81.1s36.7-81.1,81.1-81.1s81.1,36.7,81.1,81.1
	C-121.3,1042.3-158,1079-203.9,1079z M1.1,1079c0-76.5-30.6-148.4-84.2-203.5c-53.6-53.5-125.5-84.1-202-84.1V673.5
	c217.3,0,403.9,186.7,403.9,403.9H1.1V1079z M209.2,1079c0-272.3-224.9-494.2-494.2-494.2V467c333.5,0,612,273.9,612,612H209.2z"/>
</svg>
