<?xml version="1.0" encoding="utf-8"?>
<!-- Generator: Adobe Illustrator 18.1.1, SVG Export Plug-In . SVG Version: 6.00 Build 0)  -->
<!DOCTYPE svg PUBLIC "-//W3C//DTD SVG 1.1//EN" "http://www.w3.org/Graphics/SVG/1.1/DTD/svg11.dtd">
<svg version="1.1" id="Layer_1" xmlns="http://www.w3.org/2000/svg" xmlns:xlink="http://www.w3.org/1999/xlink" x="0px" y="0px"
	 viewBox="31.6 161.9 547 466.9" enable-background="new 31.6 161.9 547 466.9" xml:space="preserve">
<path fill="#DA635D" d="M544.4,429.5H65.8c-18.9,0-34.2-15.3-34.2-34.2c0-18.9,15.3-34.2,34.2-34.2h478.6
	c18.9,0,34.2,15.3,34.2,34.2C578.5,414.2,563.2,429.5,544.4,429.5L544.4,429.5z M544.4,230.2c18.9,0,34.2-15.3,34.2-34.2
	c0-18.9-15.3-34.2-34.2-34.2H65.8c-18.9,0-34.2,15.3-34.2,34.2c0,18.9,15.3,34.2,34.2,34.2H544.4L544.4,230.2z M544.4,628.8
	c18.9,0,34.2-15.3,34.2-34.2c0-18.9-15.3-34.2-34.2-34.2H65.8c-18.9,0-34.2,15.3-34.2,34.2c0,18.9,15.3,34.2,34.2,34.2H544.4
	L544.4,628.8z"/>
</svg>
