<?xml version="1.0" encoding="utf-8"?>
<!-- Generator: Adobe Illustrator 18.1.1, SVG Export Plug-In . SVG Version: 6.00 Build 0)  -->
<!DOCTYPE svg PUBLIC "-//W3C//DTD SVG 1.1//EN" "http://www.w3.org/Graphics/SVG/1.1/DTD/svg11.dtd">
<svg version="1.1" id="Layer_1" xmlns="http://www.w3.org/2000/svg" xmlns:xlink="http://www.w3.org/1999/xlink" x="0px" y="0px"
	 viewBox="-293 389 25 16" enable-background="new -293 389 25 16" xml:space="preserve">
<path id="path-1" fill="#DA635D" d="M-269.4,395.9l-6-6.4c-0.6-0.6-1.5-0.6-2.1,0c-0.6,0.6-0.6,1.6,0,2.3l3.4,3.7h-17.4
	c-0.8,0-1.5,0.7-1.5,1.6c0,0.9,0.7,1.6,1.5,1.6h17.4l-3.4,3.7c-0.6,0.6-0.6,1.6,0,2.3c0.3,0.3,0.7,0.5,1.1,0.5
	c0.4,0,0.8-0.2,1.1-0.5l6-6.4C-268.9,397.5-268.9,396.5-269.4,395.9z"/>
</svg>
