<?xml version="1.0" encoding="utf-8"?>
<!-- Generator: Adobe Illustrator 18.1.1, SVG Export Plug-In . SVG Version: 6.00 Build 0)  -->
<!DOCTYPE svg PUBLIC "-//W3C//DTD SVG 1.1//EN" "http://www.w3.org/Graphics/SVG/1.1/DTD/svg11.dtd">
<svg version="1.1" id="Layer_1" xmlns="http://www.w3.org/2000/svg" xmlns:xlink="http://www.w3.org/1999/xlink" x="0px" y="0px"
	 viewBox="-280 460.8 611.8 612" enable-background="new -280 460.8 611.8 612" xml:space="preserve">
<path id="path-1" fill="#DA635D" d="M310,943L157,790c14.7-29.4,22-63.6,22-99.1c0-127.3-102.8-230.1-230.1-230.1
	S-280,563.6-280,690.9s102.8,228.9,228.9,228.9c35.5,0,68.5-8.6,99.1-22l153,153c14.7,14.7,34.3,22,53.9,22c19.6,0,39.2-7.3,53.9-22
	C339.3,1021.4,339.3,973.6,310,943z M-242.1,692.1c0-105.3,85.7-190.9,190.9-190.9s190.9,85.7,190.9,190.9S54.2,883.1-51.1,883.1
	S-242.1,797.4-242.1,692.1z M283,1025c-7.3,7.3-17.1,11-26.9,11c-9.8,0-19.6-3.7-26.9-11L83.5,879.4c20.8-14.7,39.2-33,53.9-53.9
	L283,971.2C297.7,985.9,297.7,1009.1,283,1025z"/>
</svg>
