<?xml version="1.0" encoding="utf-8"?>
<!-- Generator: Adobe Illustrator 18.1.1, SVG Export Plug-In . SVG Version: 6.00 Build 0)  -->
<!DOCTYPE svg PUBLIC "-//W3C//DTD SVG 1.1//EN" "http://www.w3.org/Graphics/SVG/1.1/DTD/svg11.dtd">
<svg version="1.1" id="Layer_1" xmlns="http://www.w3.org/2000/svg" xmlns:xlink="http://www.w3.org/1999/xlink" x="0px" y="0px"
	 viewBox="-140 362 331 70" enable-background="new -140 362 331 70" xml:space="preserve">
<path id="path-1" fill="#4E4E56" d="M190.3,390.9c0.1,1,0.1,1.9,0.2,2.9c0,0.4,0,0.8,0.5,0.9c0,0,0,0.1-0.1,0.1c-0.7,0-1.4,0-2.2,0
	c0-0.1,0-0.1,0-0.1c0.5-0.1,0.5-0.5,0.5-0.9c0-0.6-0.1-1.3-0.1-1.9c0-0.1,0-0.2-0.1-0.4c-0.5,1.2-1,2.3-1.5,3.5c-0.1,0-0.1,0-0.2,0
	c-0.5-1.1-1-2.2-1.4-3.3c0,0-0.1,0-0.1,0c0,0.8-0.1,1.7-0.1,2.5c0,0.2,0.3,0.4,0.4,0.6c-0.5,0-1,0-1.5,0c0,0,0-0.1-0.1-0.1
	c0.6-0.2,0.6-0.8,0.6-1.2c0.1-0.9,0.1-1.8,0.2-2.7c0-0.2-0.1-0.4-0.3-0.5c-0.1,0-0.1-0.1-0.2-0.2c0.6,0,1.1,0,1.5,0
	c0.1,0,0.2,0.2,0.3,0.4c0.4,0.8,0.7,1.7,1.1,2.6c0.4-0.8,0.7-1.6,1-2.4c0.2-0.5,0.4-0.7,1-0.6c0.3,0,0.6,0,0.9,0
	c-0.1,0.1-0.1,0.2-0.2,0.2C190.3,390.4,190.3,390.7,190.3,390.9z M184.1,391.5c-0.1-0.1-0.2-0.3-0.2-0.4c-0.3-0.4-0.6-0.6-1.2-0.5
	c0,0.5,0,0.9,0,1.3c0,0.6,0,1.2,0,1.7c0,0.4-0.1,0.9,0.5,1.2c0,0-0.1,0.1-0.1,0.1c-0.7,0-1.4,0-2.1,0c0.6-0.3,0.4-0.8,0.4-1.3
	c0-1,0-2,0-3.1c-0.4,0.2-0.7,0.2-1,0.4c-0.2,0.2-0.4,0.5-0.6,0.8c0,0-0.1-0.1-0.1-0.1c0-0.4,0.1-0.9,0.1-1.3c0-0.1,0.2-0.3,0.3-0.3
	c1.2,0,2.5,0,3.7,0c0.1,0,0.3,0.1,0.3,0.2c0.1,0.4,0.1,0.8,0.1,1.1c0,0.1,0,0.1-0.1,0.2C184.3,391.6,184.2,391.5,184.1,391.5z
	 M175,412.2c-1.3,0.7-2.8,1.2-4.5,1.9c4.8,2.5,7.1,7.1,10.1,11.2c1.6,2.1,3.1,4.3,6.5,5.2c-0.9,0.5-1.4,0.9-1.9,1
	c-4.9,1.1-8.9-0.5-11.7-4.8c-1.7-2.7-3.4-5.5-4.9-8.2c-1.5-2.7-3.7-3.9-7-3.2c0,3.8-0.1,7.5,0.1,11.3c0,0.8,1.2,1.7,2,2.4
	c0.3,0.3,1,0.2,1.5,0.4c0.3,0.1,0.6,0.5,0.8,0.8c-0.3,0.3-0.7,0.7-1,0.7c-1.3,0.1-2.6,0-3.9,0c-2.8,0-5.5,0.1-8.3,0
	c-0.5,0-0.9-0.5-1.4-0.7c0.4-0.3,0.7-0.8,1.1-0.9c1.7-0.4,2.4-1.5,2.4-3.2c0-8.6,0-17.1,0-25.7c0-1.8-0.8-2.7-2.4-3.2
	c-0.4-0.1-0.7-0.6-1.1-0.9c0.4-0.2,0.9-0.7,1.3-0.7c6.4,0,12.8-0.1,19.2,0.1c4.2,0.2,7.2,3.2,7.9,7.1
	C180.5,406.5,178.6,410.3,175,412.2z M171.1,400.2c-2.4-2.2-5.3-2.6-8.4-2c-0.5,0.1-1.2,1.2-1.2,1.8c-0.1,4-0.1,8.1-0.1,12.4
	c2,0,3.7,0.1,5.5,0c2.9-0.3,5.2-2.2,5.9-4.8C173.6,404.8,173.3,402.2,171.1,400.2z M148.1,429c-0.4,1.3-1.2,1.9-2.6,1.9
	c-8.8,0-17.5,0-26.3,0c-0.4,0-0.9-0.4-1.3-0.6c0.3-0.3,0.6-0.9,1-1c2-0.4,2.6-1.8,2.6-3.7c0-8.3,0-16.6,0-25c0-1.9-0.7-3.1-2.5-3.6
	c-0.4-0.1-0.7-0.6-1-1c0.4-0.2,0.8-0.5,1.2-0.6c0.6-0.1,1.2,0,1.8,0c7.7,0,15.4,0.1,23.1,0.1c2.1,0,2.4,0.3,2.6,2.5
	c0.1,1.9,0.2,3.8,0.2,5.7c0,0.5-0.4,1-0.6,1.5c-0.4-0.3-0.9-0.6-1.1-1c-1.5-4.3-4.8-5.6-8.8-5.8c-2.2-0.1-4.5-0.1-6.7,0
	c-0.5,0-1.5,0.8-1.5,1.3c-0.1,3.9-0.1,7.9-0.1,12.2c3.4-0.2,6.6-0.4,9.7-0.7c1.6-0.2,2.6-1.2,3.2-2.7c0.2-0.4,0.8-0.7,1.2-1
	c0.1,0.5,0.4,1,0.4,1.5c0,2.8,0,5.6,0,8.4c0,0.5-0.3,1-0.4,1.5c-0.4-0.3-1.1-0.6-1.2-1c-0.8-2.3-2.6-3.2-4.7-3.4
	c-2.7-0.2-5.4-0.1-8.2-0.1c0,3.7-0.1,7.4,0,11.1c0,1.2,0.8,2,2.1,2.2c4.3,0.7,8.6,0.9,12.7-0.6c2-0.7,3.6-2.8,5.4-4.1
	c0.5-0.3,1-0.5,1.5-0.8c0,0.6,0.2,1.2,0,1.8C149.3,425.5,148.6,427.2,148.1,429z M112.2,402c-3.6,9.1-7.2,18.2-10.8,27.3
	c-0.2,0.4-0.3,0.9-0.6,1.3c-0.3,0.4-0.7,0.7-1,1.1c-0.3-0.4-0.8-0.7-1-1.1c-1.2-3-2.4-5.9-3.6-8.9c-2.8-7-5.6-14.1-8.6-21.1
	c-0.6-1.3-1.8-2.3-2.8-3.5c-0.2-0.3-0.4-0.6-0.7-0.9c0.4-0.2,0.7-0.6,1.1-0.6c1.7,0,3.3,0,5,0l-3.6-7.9l-7.4-2.7l-5.6-5.7l-3.6-5.6
	l-4.3-5.3l2.9-0.6l-4.7-1.2l-7.1-4.3l6.8,0.5l6.6,1.2l6.3,2.4l5.9,3.3l4.5,5.1l2.6,6.3l0.7,6.8l0.1,7.8c2,0,3.9,0,5.9,0
	c0.3,0,0.7,0.4,1,0.5c-0.3,0.3-0.4,0.8-0.8,1c-2.1,1.2-2.5,1.8-1.6,4.1c2.6,6.6,5.2,13.2,8,20.2c1.4-3.8,2.7-7.2,4-10.7
	c1-2.7,2.1-5.4,3.1-8.2c1.1-2.9,0.7-3.9-1.9-5.5c-0.3-0.2-0.5-0.6-0.7-0.9c0.3-0.2,0.6-0.6,0.9-0.6c2.8-0.1,5.5,0,8.3,0
	c0.3,0,0.8,0.3,0.8,0.4c0,0.3-0.2,0.9-0.4,1C113.6,397.8,113,400,112.2,402z M72.7,395.6c4.2,0.2,7.2,3.2,8,7.1
	c0.7,3.8-1.2,7.6-4.8,9.5c-1.3,0.7-2.8,1.2-4.5,1.9c4.8,2.6,7.2,7.2,10.2,11.3c1.5,2.1,3.1,4.2,6.4,5c-0.9,0.5-1.4,0.9-1.9,1.1
	c-4.9,1.1-8.9-0.5-11.7-4.8c-1.7-2.6-3.3-5.3-4.9-8.1c-1.5-2.8-3.7-4.1-7-3.4c0,3.8-0.1,7.7,0.1,11.4c0,0.8,1.3,1.6,2.1,2.3
	c0.3,0.3,0.9,0.2,1.3,0.4c0.3,0.2,0.6,0.5,0.9,0.7c-0.3,0.3-0.7,0.7-1,0.8c-1,0.1-2.1,0-3.2,0c-2.9,0-5.9,0.1-8.8,0
	c-0.5,0-1.1-0.4-1.6-0.7c0.4-0.3,0.8-0.9,1.3-1c1.6-0.4,2.2-1.4,2.2-3c0-8.7,0-17.3,0-26c0-1.7-0.9-2.6-2.4-3.1
	c-0.4-0.1-0.7-0.6-1.1-0.9c0.4-0.2,0.8-0.7,1.3-0.7C59.9,395.4,66.3,395.3,72.7,395.6z M62.4,412.4c2,0,3.9,0.2,5.7,0
	c2.6-0.4,4.7-1.8,5.6-4.5c0.8-2.7,0.6-5.4-1.5-7.5c-2.4-2.4-5.4-2.7-8.5-2.2c-0.5,0.1-1.3,1-1.3,1.6
	C62.3,403.9,62.4,408.1,62.4,412.4z M48.9,428.9c-0.4,1.3-1.2,1.9-2.6,1.9c-8.8,0-17.5,0-26.3,0c-0.4,0-0.9-0.4-1.3-0.5
	c0.4-0.4,0.7-1,1.1-1.1c1.9-0.4,2.4-1.7,2.4-3.4c0-8.4,0-16.9,0-25.3c0-1.7-0.6-2.9-2.3-3.3c-0.5-0.1-0.8-0.7-1.2-1
	c0.5-0.2,1-0.7,1.5-0.7c3.3,0,6.6,0.1,9.9,0.1c4.9,0,9.9,0,14.8,0c1.7,0,2.4,0.6,2.4,2.3c0.1,2,0.2,4.1,0.2,6.1
	c0,0.4-0.4,0.9-0.6,1.3c-0.4-0.3-1-0.6-1.1-1c-1.5-4.4-4.9-5.7-9-5.9c-2.2-0.1-4.3-0.1-6.5-0.1c-0.9,0-1.6,0.3-1.6,1.5
	c0,3.9,0,7.8,0,12c3.2-0.2,6.2-0.2,9.2-0.5c1.6-0.2,3-1,3.6-2.7c0.2-0.5,0.8-0.8,1.3-1.2c0.1,0.5,0.4,1.1,0.4,1.6
	c0,2.7,0.1,5.5,0,8.2c0,0.5-0.2,1.1-0.3,1.6c-0.4-0.3-1.1-0.6-1.2-1c-0.8-2.4-2.7-3.3-4.9-3.5c-2.6-0.2-5.3-0.1-8-0.1
	c0,3.7-0.1,7.5,0,11.2c0,1.1,0.8,1.9,2.1,2.1c4.3,0.7,8.6,0.9,12.7-0.6c2-0.7,3.6-2.7,5.4-4.1c0.5-0.4,1-0.6,1.5-0.9
	c0,0.6,0.2,1.2,0,1.7C50.2,425.5,49.5,427.2,48.9,428.9z M2.7,408.5c2.6,1.4,5.4,2.6,8,4.1c4.2,2.4,5.6,5.8,4.8,10.9
	c-0.6,3.7-3.9,7.1-7.7,8c-3.8,0.9-7.5,0.1-11-1.3c-1.2-0.5-2.2-0.8-2.9,0.8c-0.1,0.3-0.7,0.5-1,0.4c-0.3-0.1-0.6-0.6-0.6-1
	c-0.5-3.2-1-6.4-1.4-9.5c-0.1-0.5,0.3-1,0.5-1.6c0.4,0.3,1,0.5,1.3,0.9c1.2,1.7,2.1,3.6,3.5,5.1c2.6,3,5.9,4.5,9.9,3.6
	c2.2-0.5,3.6-2,4.2-4.1c0.6-2.2-0.1-4-1.7-5.3c-1.5-1.2-3.3-2.2-5.1-3.1c-1.9-1-4-1.7-5.9-2.7c-4.4-2.3-6.4-6-5.7-10.7
	c0.5-4,3.8-7.3,8.3-8.2c1.2-0.2,2.4-0.3,3.7-0.5c0-0.1,0.1-0.2,0.1-0.3c2.6,0.8,5.3,1.4,7.8,2.3c1.3,0.4,2,1.6,2,3.1
	c0,1.4,0.3,2.9,0.2,4.3c0,0.7-0.5,1.3-0.8,1.9c-0.5-0.4-1.1-0.7-1.5-1.3c-0.8-1.2-1.3-2.6-2.1-3.7c-2.2-2.9-5.8-4.1-8.9-3
	c-3.8,1.4-4.8,5.7-1.8,8.4C-0.1,407.1,1.3,407.8,2.7,408.5z M-15.2,400.7c0,9.6,0.1,19.1,0.1,28.7c0,0.8-0.4,1.5-0.6,2.3
	c-0.7-0.4-1.5-0.6-2-1.1c-7.4-7.9-14.7-15.8-22.1-23.7c-0.8-0.9-1.7-1.8-2.7-2.9c-0.1,0.6-0.2,1-0.2,1.3c0,6.5-0.1,13-0.1,19.6
	c0,3,0.5,3.5,3.3,4.3c0.5,0.1,1,0.6,1.4,1c-0.5,0.2-1.1,0.6-1.6,0.7c-2.8,0.1-5.6,0.1-8.5,0c-0.5,0-0.9-0.4-1.4-0.6
	c0.4-0.4,0.7-0.9,1.2-1.1c1.7-0.5,2.3-1.6,2.4-3.3c0.1-7.5,0.3-15,0.3-22.4c0-2.7-0.3-5.3-3.4-6.4c-0.3-0.1-0.5-0.6-0.7-0.9
	c0.4-0.2,0.7-0.6,1.1-0.6c2.1,0,4.2-0.1,6.3,0.1c0.8,0.1,1.7,0.8,2.3,1.5c7,7.4,13.9,14.8,20.8,22.2c0.3,0.3,0.4,0.7,0.6,1.1
	c0.1-0.1,0.3-0.2,0.4-0.3c0-6.7,0-13.4,0-20.1c0-1.7-1.2-2.4-2.7-2.8c-0.5-0.1-1-0.7-1.4-1.1c0.6-0.2,1.1-0.5,1.7-0.5
	c2.5-0.1,4.9-0.1,7.4,0c0.5,0,1.1,0.4,1.6,0.6c-0.4,0.3-0.8,0.9-1.2,1C-14.5,397.7-15.2,399.1-15.2,400.7z M-71.3,431.8
	c-11.1,0-18.2-7.3-18.1-18.8c0-11.1,7.6-18.6,18.6-18.6c10.3,0,18,8,17.9,18.7C-52.8,424-60.6,431.9-71.3,431.8z M-59.9,414.9
	c0.3-4.5-0.2-8.9-2.6-12.9c-2.1-3.4-5.2-5.1-9.2-4.9c-4.2,0.1-7.2,2.2-8.9,6.1c-1.4,3.1-1.8,6.4-1.7,9.8c-0.1,0-0.3,0.1-0.4,0.1
	c0.6,3,1,6.1,2,9c1.5,4.6,5.3,7.1,9.8,7.1c4.3,0,7.9-2.3,9.6-6.8C-60.6,420-60.1,417.5-59.9,414.9z M-57.3,390.1
	c-0.1,0.3-0.3,0.5-0.7,0.5c-2.4,0-4.8,0-7.2,0c-0.1,0-0.2-0.1-0.3-0.2c0.1-0.1,0.2-0.2,0.3-0.3c0.5-0.1,0.7-0.5,0.7-1
	c0-2.3,0-4.5,0-6.8c0-0.5-0.2-0.9-0.7-1c-0.1,0-0.2-0.1-0.3-0.2c0.1-0.1,0.2-0.2,0.3-0.2c0.5,0,0.9,0,1.4,0c1.8,0,3.6,0,5.3,0
	c0.5,0,0.7,0.2,0.7,0.6c0,0.5,0.1,1.1,0.1,1.6c0,0.1-0.1,0.3-0.1,0.4c-0.1-0.1-0.3-0.1-0.3-0.2c-0.4-1.2-1.4-1.6-2.5-1.6
	c-0.6,0-1.1,0-1.7,0c-0.3,0-0.4,0.1-0.4,0.4c0,1,0,2.1,0,3.2c0.9,0,1.7-0.1,2.6-0.2c0.4,0,0.8-0.3,0.9-0.7c0-0.1,0.2-0.2,0.4-0.3
	c0,0.1,0.1,0.3,0.1,0.4c0,0.8,0,1.5,0,2.3c0,0.1-0.1,0.3-0.1,0.4c-0.1-0.1-0.3-0.1-0.3-0.3c-0.3-0.8-0.9-0.9-1.5-1
	c-0.6,0-1.3,0-1.9,0c0,1,0,2.1,0,3.1c0,0.2,0.3,0.4,0.5,0.5c1.2,0.2,2.4,0.3,3.6-0.2c0.5-0.2,0.9-0.7,1.4-1.1
	c0.1-0.1,0.3-0.1,0.4-0.2c0,0.2,0.1,0.3,0,0.5C-56.9,389.2-57.1,389.6-57.3,390.1z M-67,382.5c0,2.3,0,4.5,0,6.8
	c0,0.5,0.2,0.8,0.7,0.9c0.1,0,0.2,0.2,0.3,0.3c-0.1,0.1-0.2,0.1-0.4,0.1c-1,0-2,0-3,0c-0.1,0-0.2-0.1-0.4-0.1
	c0.1-0.1,0.2-0.3,0.3-0.3c0.5-0.1,0.6-0.4,0.6-0.9c0-1,0-2,0-3.1c-1.6,0-3.2,0-4.8,0c0,0.5,0,1,0,1.5c0,0.5,0,1.1,0,1.6
	c0,0.5,0.2,0.8,0.6,0.9c0.1,0,0.2,0.2,0.3,0.3c-0.1,0.1-0.3,0.2-0.4,0.2c-1,0-1.9,0-2.9,0c-0.1,0-0.2-0.1-0.4-0.2
	c0.1-0.1,0.2-0.3,0.3-0.3c0.5-0.1,0.6-0.4,0.6-0.9c0-2.3,0-4.5,0-6.8c0-0.5-0.2-0.9-0.7-1c-0.1,0-0.2-0.2-0.2-0.2
	c0.1-0.1,0.2-0.2,0.3-0.2c1,0,2.1,0,3.1,0c0.1,0,0.2,0.1,0.3,0.1c-0.1,0.1-0.1,0.2-0.2,0.3c-0.7,0.2-0.8,0.6-0.7,1.2
	c0,0.9,0,1.7,0,2.7c1.6,0,3.2,0,4.8,0c0-1.1,0-2.2,0-3.3c0-0.2-0.4-0.4-0.6-0.6c-0.1-0.1-0.2-0.2-0.3-0.3c0.1-0.1,0.2-0.1,0.3-0.2
	c1,0,2,0,3.1,0c0.1,0,0.2,0.1,0.3,0.2c-0.1,0.1-0.2,0.2-0.3,0.3C-66.8,381.6-67,382-67,382.5z M-74.9,380.5
	c-0.7-2.3-2.4-2.7-4.7-2.5c0,0.2,0,0.4,0,0.6c0,3.2,0,6.4,0,9.5c0,0.3,0,0.5,0,0.8c0,0.7,0.3,1,0.9,1.1c0.1,0,0.3,0.1,0.4,0.1
	c0.2,0.2,0.2,0.4-0.1,0.5c-0.2,0.1-0.4,0.1-0.6,0.1c-1.2,0-2.4,0-3.5,0c-0.3,0-0.7,0.1-0.7-0.3c0-0.1,0.4-0.3,0.6-0.4
	c0.6-0.2,0.8-0.4,0.8-1c0-0.3,0-0.6,0-0.9c0-3.1,0-6.3,0-9.4c0-0.2,0-0.4,0-0.6c-2.2-0.3-3.9,0.2-4.6,2.3c0,0.1-0.1,0.2-0.1,0.3
	c-0.1,0.1-0.3,0.2-0.4,0.2c-0.1-0.1-0.2-0.3-0.2-0.4c0-0.6,0.1-1.2,0.2-1.7c0.1-0.4,0.1-0.8,0.2-1.2c0-0.4,0.2-0.6,0.6-0.6
	c0.2,0,0.4,0,0.7,0c3.4,0,6.7,0,10.1,0c0.6,0,0.8,0.1,0.9,0.7c0.1,0.9,0.2,1.9,0.3,2.8c0,0.1-0.1,0.3-0.2,0.5
	C-74.6,380.8-74.9,380.7-74.9,380.5z M-97,429.2c-4.7,2.4-9.8,2.7-13.2,2.8c-7.6,0-13.3-0.8-18.4-3.9c-6.4-3.9-10.1-9.8-11-17.2
	c-1.2-9.7,1.7-18.1,8.5-24.9c5.2-5.1,11.7-6.9,18.8-6.6c4.4,0.2,8.8,1.1,13.2,1.9c2.4,0.4,3.8,1.8,4,4.4c0.2,2.7,0.7,5.3,0.9,8
	c0,0.7-0.5,1.5-0.8,2.2c-0.6-0.5-1.5-0.9-1.8-1.6c-1.3-3.1-2.9-6-5.5-8.2c-6.9-5.9-21.9-6.4-27,7.5c-3.4,9.4-2.4,18.7,2.8,27.3
	c3.1,5.1,7.9,7.4,13.7,7.8c6.4,0.4,11.5-1.7,15.4-6.9c0.8-1.1,1.3-2.6,2.1-3.7c0.4-0.6,1.2-0.8,1.9-1.2c0.3,0.7,0.8,1.4,0.7,2
	c-0.5,2.7-1,5.4-1.8,8C-95,427.7-96.1,428.7-97,429.2z"/>
</svg>
